<svg width="0" height="0" class="hidden">
  <symbol xmlns="http://www.w3.org/2000/svg" viewBox="0 0 19 19" id="search">
    <path fill-rule="evenodd" clip-rule="evenodd" d="M17.9 16.486l-3.58-3.58a8 8 0 10-1.415 1.413l3.58 3.58a1 1 0 101.416-1.413zM13.198 11A6 6 0 112.804 5a6 6 0 0110.393 6z"></path>
  </symbol>

  <symbol xmlns="http://www.w3.org/2000/svg" viewBox="0 0 10 8" id="arrow-down">
    <path d="M8.82.91L5 4.731 1.18.911 0 2.09l5 5 5-5L8.82.91z"></path>
  </symbol>

  <symbol xmlns="http://www.w3.org/2000/svg" viewBox="0 0 40 40" id="left">
    <path opacity=".24" d="M20 40c11.046 0 20-8.954 20-20S31.046 0 20 0 0 8.954 0 20s8.954 20 20 20z" fill="#000"></path>
    <path fill-rule="evenodd" clip-rule="evenodd" d="M22.86 12.38l.763.77c.251.267.377.579.377.935 0 .363-.126.67-.377.924L18.674 20l4.95 4.991c.25.254.376.562.376.925 0 .355-.126.667-.377.934l-.764.76a1.26 1.26 0 01-.926.39c-.367 0-.672-.13-.917-.39l-6.629-6.685A1.226 1.226 0 0114 20c0-.363.129-.674.387-.934l6.63-6.686c.25-.253.556-.38.916-.38a1.3 1.3 0 01.927.38z" fill="#fff"></path>
  </symbol>
  <symbol xmlns="http://www.w3.org/2000/svg" viewBox="0 0 40 40" id="right">
    <path opacity=".24" d="M20 40c11.046 0 20-8.954 20-20S31.046 0 20 0 0 8.954 0 20s8.954 20 20 20z"></path>
    <path fill-rule="evenodd" clip-rule="evenodd" d="M17.14 12.38l-.763.77a1.321 1.321 0 00-.377.935c0 .363.126.67.377.924L21.326 20l-4.95 4.991a1.264 1.264 0 00-.376.924c0 .356.126.668.377.935l.764.76c.258.26.567.39.926.39.367 0 .672-.13.917-.39l6.629-6.686c.258-.246.387-.554.387-.924a1.28 1.28 0 00-.387-.934l-6.63-6.686a1.242 1.242 0 00-.916-.38 1.3 1.3 0 00-.927.38z" fill="#fff"></path>
  </symbol>






  <symbol fill="none" xmlns="http://www.w3.org/2000/svg" viewBox="0 0 30 30" id="profit-conditions">
    <g clip-path="url(#clip0)" fill="#C6C6C6">
      <path d="M26.795 12.941h-1.354V.882A.882.882 0 0024.56 0H1.206a.882.882 0 00-.883.882v22.602a2.95 2.95 0 002.908 2.94h5.164v2.694c0 .487.395.882.882.882h19.517a.882.882 0 00.882-.882V15.823a2.885 2.885 0 00-2.88-2.882zM2.088 1.765h21.588V12.94H7.273a2.874 2.874 0 00-2.88 2.796v7.747a1.18 1.18 0 01-1.155 1.175 1.18 1.18 0 01-1.15-1.175V1.764zM5.911 24.66a2.95 2.95 0 00.247-1.176v-7.726a1.115 1.115 0 011.12-1.052c.616 0 1.117.501 1.117 1.117v8.837H5.91zm22 3.575H10.16V15.823c0-.389-.08-.774-.225-1.117h16.861c.616 0 1.117.5 1.117 1.117v12.412z"></path>
      <path d="M4.888 6.005h.899v3.447a.882.882 0 001.765 0V6.005h.899a.882.882 0 000-1.765H4.888a.882.882 0 000 1.765zm5.958 4.329a.882.882 0 00.882-.882v-.51h1.798v.51a.882.882 0 001.765 0V6.904a2.667 2.667 0 00-2.664-2.664 2.667 2.667 0 00-2.664 2.664v2.548c0 .487.395.882.883.882zm1.78-4.33a.9.9 0 01.9.9v.272h-1.798v-.272a.9.9 0 01.899-.9zm4.127 4.129a.882.882 0 001.242-.12l1.1-1.337 1.1 1.336a.882.882 0 001.363-1.12l-1.32-1.605 1.32-1.604a.882.882 0 10-1.363-1.121l-1.1 1.337-1.1-1.337a.882.882 0 00-1.362 1.121l1.32 1.604-1.32 1.604a.882.882 0 00.12 1.242zm2.316 8.397H12.99a.882.882 0 100 1.764h6.078a.882.882 0 000-1.765zm0 4.235H12.99a.882.882 0 000 1.764h6.078a.882.882 0 100-1.764zm6.608-4.235h-2.98a.882.882 0 100 1.764h2.98a.882.882 0 000-1.765zm0 4.235h-2.98a.882.882 0 000 1.764h2.98a.882.882 0 100-1.764z"></path>
    </g>
    <defs>
      <clipPath id="clip0">
        <path fill="#fff" d="M0 0h30v30H0z"></path>
      </clipPath>
    </defs>
  </symbol>
  <symbol fill="none" xmlns="http://www.w3.org/2000/svg" viewBox="0 0 30 30" id="profit-price">
    <g clip-path="url(#clip0)" fill="#C6C6C6">
      <path d="M26.3 8.07l.168 6.805a2.635 2.635 0 01-1.318 2.348l-12.555 7.249 7.45 4.287a.875.875 0 001.2-.323l8.237-14.296a.879.879 0 00-.012-.898L26.3 8.07zM9.617 10.86a.358.358 0 00-.27-.035.353.353 0 00-.25.435.355.355 0 10.52-.4zm6.643 3.3a.356.356 0 10.184.687.356.356 0 00-.184-.686z"></path>
      <path d="M24.71 14.918l-.208-8.472a.879.879 0 00-.42-.729l-.796-.485a1.838 1.838 0 00-.321 2.03 2.64 2.64 0 01-2.391 3.748 2.647 2.647 0 01-2.392-1.526 7.167 7.167 0 01-.662-2.999c0-1.488.46-2.871 1.243-4.015L16.848 1.3a.878.878 0 00-.897-.01L.44 10.245a.879.879 0 00-.322 1.2l7.441 12.89a.878.878 0 001.2.321l15.512-8.955a.88.88 0 00.44-.783zM9.44 13.281a2.117 2.117 0 01-2.042-1.567 2.099 2.099 0 01.211-1.603 2.1 2.1 0 011.283-.984 2.1 2.1 0 011.603.21 2.1 2.1 0 01.985 1.284 2.1 2.1 0 01-.211 1.603 2.099 2.099 0 01-1.83 1.057zm2.28 4.826A.881.881 0 0110.872 17l2.354-8.785a.879.879 0 111.698.455l-2.354 8.785a.88.88 0 01-.848.652zm5.178-1.562a2.114 2.114 0 01-2.588-1.494 2.115 2.115 0 011.495-2.588 2.115 2.115 0 012.587 1.494 2.116 2.116 0 01-1.494 2.588z"></path>
      <path d="M20.574 9.253a.879.879 0 00.797-1.25 3.608 3.608 0 013.268-5.121 3.608 3.608 0 013.434 4.704l1.089 1.777c.549-.86.838-1.847.838-2.877a5.367 5.367 0 00-5.361-5.362 5.367 5.367 0 00-5.362 5.362c0 .774.173 1.555.5 2.258a.88.88 0 00.797.509z"></path>
    </g>
    <defs>
      <clipPath id="clip0">
        <path fill="#fff" d="M0 0h30v30H0z"></path>
      </clipPath>
    </defs>
  </symbol>
  <symbol fill="none" xmlns="http://www.w3.org/2000/svg" viewBox="0 0 30 30" id="talk-seller">
    <path d="M25.181 2.022H4.79A3.871 3.871 0 00.923 5.888v12.48a3.87 3.87 0 003.853 3.866v5.663l8.138-5.662H25.18a3.871 3.871 0 003.867-3.867V5.887a3.871 3.871 0 00-3.867-3.866zm-3.66 14.502H8.45v-1.648h13.07v1.648zm0-3.516H8.45v-1.647h13.07v1.647zm0-3.515H8.45V7.845h13.07v1.648z" fill="#C6C6C6"></path>
  </symbol>
  <symbol fill="none" xmlns="http://www.w3.org/2000/svg" viewBox="0 0 30 30" id="more-income">
    <g clip-path="url(#clip0)" fill="#C6C6C6">
      <path d="M29.219 21.473c-.56-.823-1.51-1.024-2.54-.538l-.547.24c.862-1.837.969-3.884.54-5.819-.493-2.221-1.683-4.373-3.537-6.396a.44.44 0 10-.648.594c1.749 1.907 2.868 3.924 3.327 5.993.483 2.179.202 4.426-1.031 6.222l-5.47 2.409.005-.618c0-.016 0-.031-.002-.047a2.754 2.754 0 00-2.371-2.461l-4.861-.56c-1.87-.266-2.351-1.386-4.883-2.025-.174-1.484.059-3.064.698-4.648.962-2.386 2.845-4.704 5.455-6.722.973.69 5.313.776 6.284-.114.498.378.973.767 1.415 1.162a.438.438 0 00.62-.036.44.44 0 00-.035-.62 24.496 24.496 0 00-1.554-1.27c.128-.544-.051-1.18-.525-1.56 1.376-2.086 1.776-3.452 1.224-4.167C20.403 0 19.93.23 19.729.329c-.342.167-.528.176-.843-.03-.6-.392-1.23-.405-1.85 0-.318.209-.57.209-.888 0-.6-.392-1.23-.405-1.85 0-.318.208-.505.196-.841.028-.202-.1-.674-.334-1.056.157-.54.696-.178 2.018 1.104 4.034a1.43 1.43 0 00-.223.15c-.51-.54-1.346-1.101-2.555-.966a3.22 3.22 0 01-2.186-.517.44.44 0 00-.49.73 4.097 4.097 0 002.773.66c.934-.105 1.568.372 1.963.858l-.015.057c-.337.005-.84.036-1.394.151-1.332.278-2.32.91-2.859 1.831a.44.44 0 00.759.444c.8-1.37 2.756-1.537 3.533-1.547l.011.029C10.05 8.536 8.12 10.92 7.084 13.49c-.655 1.624-.917 3.25-.784 4.797a9.145 9.145 0 00-1.276-.099v-.265c0-.703-.572-1.275-1.275-1.275H1.732c-.703 0-1.275.572-1.275 1.275v10.233c0 .703.572 1.275 1.275 1.275h2.017c.703 0 1.275-.572 1.275-1.275v-.125l4.4 1.637a5.26 5.26 0 001.842.332h6.556c1.002 0 1.98-.284 2.826-.82 8.745-5.544 8.214-5.2 8.265-5.244a1.884 1.884 0 00.306-2.463zM18.814 6.463a9.523 9.523 0 01-4.776 0c-.69-.175-.49-1.405.251-1.219a8.565 8.565 0 004.273 0c.729-.183.952 1.041.252 1.218zm-5.759-5.354l.01.005c.595.296 1.116.312 1.714-.08.749-.49.83.296 1.813.296.473 0 .735-.17.925-.295.319-.209.57-.209.888 0 .6.393 1.11.373 1.721.078.09.326-.114 1.298-1.417 3.237-.647-.01-1.586.625-4.244.033-1.3-1.964-1.5-2.945-1.41-3.274zm15.298 22.148l-8.176 5.18a4.395 4.395 0 01-2.355.684h-6.556a4.386 4.386 0 01-1.536-.276l-4.706-1.752v-4.732a.44.44 0 10-.879 0v5.795a.397.397 0 01-.396.396H1.732a.397.397 0 01-.396-.396V17.923c0-.219.177-.396.396-.396h2.017c.218 0 .396.177.396.396v2.384a.44.44 0 10.879 0v-1.24c3.635.028 4.452 1.944 6.942 2.296l.011.002 4.86.56c.852.122 1.507.8 1.602 1.653l-.006.836H13.9a.44.44 0 100 .879h4.969c.055 0 .12-.013.175-.037l7.994-3.52c.575-.255 1.099-.291 1.454.23.276.407.215.956-.139 1.291z"></path>
      <path d="M16.541 19.935a.44.44 0 00.44-.44v-.728c1.233-.2 1.953-1.198 2.11-2.13.195-1.163-.414-2.175-1.553-2.578-.201-.07-.386-.139-.557-.204v-2.802c.52.086.832.355.854.375a.44.44 0 00.594-.648 2.723 2.723 0 00-1.448-.614V9.54a.44.44 0 10-.879 0v.66c-.106.02-.214.046-.326.08-.745.224-1.302.863-1.454 1.668-.137.73.094 1.431.604 1.831.293.23.661.44 1.176.665v3.474c-.508-.021-.82-.116-1.367-.473a.44.44 0 10-.48.735c.717.47 1.196.592 1.847.617v.697c0 .243.197.44.44.44zm-1.073-6.846c-.25-.197-.359-.572-.282-.978.07-.376.33-.834.843-.989l.073-.02v2.373a3.698 3.698 0 01-.634-.386zm1.777 1.799c1.093.386 1.026 1.325.979 1.603-.097.577-.52 1.193-1.243 1.378v-3.076l.264.095z"></path>
    </g>
    <defs>
      <clipPath id="clip0">
        <path fill="#fff" d="M0 0h30v30H0z"></path>
      </clipPath>
    </defs>
  </symbol>
</svg>