<svg width="130" height="62" viewBox="0 0 130 62" fill="none" xmlns="http://www.w3.org/2000/svg">
<path d="M13.68 58.9C13.6733 58.9 13.6567 58.9 13.63 58.9C13.6033 58.9 13.5 58.9667 13.32 59.1L11.02 53.08L10.54 58.32C10.5267 58.4267 10.5767 58.5167 10.69 58.59C10.8033 58.6633 10.96 58.7 11.16 58.7H11.58V59H9.18V58.7H9.5C9.88667 58.7 10.0933 58.5533 10.12 58.26L10.62 52.74C10.6333 52.6133 10.5867 52.51 10.48 52.43C10.38 52.3433 10.22 52.3 10 52.3H9.68V52H11.56L13.7 57.64L15.86 52H17.66V52.28H17.26C16.94 52.28 16.78 52.4033 16.78 52.65C16.78 52.67 16.78 52.6933 16.78 52.72L17.24 58.26C17.2533 58.4133 17.29 58.5267 17.35 58.6C17.4167 58.6667 17.5333 58.7 17.7 58.7H18.1V59H15.54V58.7H15.88C16.0667 58.7 16.1933 58.67 16.26 58.61C16.3267 58.55 16.36 58.4867 16.36 58.42C16.36 58.3467 16.36 58.2933 16.36 58.26L15.92 53.02L13.68 58.9ZM28.9873 59H26.4273V58.72H26.7473C27.0407 58.72 27.1873 58.6267 27.1873 58.44C27.1873 58.4133 27.154 58.3 27.0873 58.1L26.4073 56.32H23.8873L23.2273 58.02C23.2273 58.0333 23.204 58.1167 23.1573 58.27C23.1107 58.4167 23.0873 58.52 23.0873 58.58C23.0873 58.6333 23.124 58.67 23.1973 58.69C23.2707 58.71 23.4273 58.72 23.6673 58.72H23.8273V59H21.8673V58.72H22.0073C22.2273 58.72 22.3873 58.6833 22.4873 58.61C22.5873 58.53 22.674 58.4 22.7473 58.22L24.9473 52.48C24.9807 52.4733 25.0407 52.4267 25.1273 52.34C25.214 52.2467 25.294 52.1533 25.3673 52.06C25.4407 51.96 25.4773 51.9033 25.4773 51.89C25.4773 51.8767 25.474 51.8667 25.4673 51.86L25.6073 51.82L28.0673 58.26C28.1407 58.4133 28.214 58.53 28.2873 58.61C28.3673 58.6833 28.4807 58.72 28.6273 58.72H28.9873V59ZM26.2273 55.9L25.1473 53.04L24.0473 55.9H26.2273ZM34.5318 52L36.4318 51.9C37.0185 51.9 37.4985 52.0233 37.8718 52.27C38.2451 52.5167 38.4318 52.8533 38.4318 53.28C38.4318 53.8733 38.2718 54.3567 37.9518 54.73C37.6318 55.1033 37.2385 55.3867 36.7718 55.58L38.3918 58.02C38.4585 58.1267 38.5851 58.27 38.7718 58.45C38.9651 58.63 39.1385 58.72 39.2918 58.72H39.4718V59H37.9918C38.0118 59 37.9485 58.9 37.8018 58.7C37.6551 58.5 37.5718 58.38 37.5518 58.34L35.8918 55.78C35.8251 55.7933 35.6918 55.8 35.4918 55.8C35.2918 55.8 35.1318 55.7933 35.0118 55.78L34.9318 55.38C35.0251 55.3933 35.2251 55.4 35.5318 55.4C35.8385 55.4 36.1451 55.36 36.4518 55.28C36.7585 55.2 37.0285 55.05 37.2618 54.83C37.4951 54.6033 37.6118 54.3133 37.6118 53.96C37.6118 52.9733 36.9785 52.48 35.7118 52.48L34.6718 52.52V58.26C34.6718 58.36 34.6785 58.4367 34.6918 58.49C34.7051 58.5433 34.7485 58.5967 34.8218 58.65C34.8951 58.6967 35.0051 58.72 35.1518 58.72H35.5318V59H32.9918V58.72H33.3118C33.4585 58.72 33.5685 58.6967 33.6418 58.65C33.7151 58.5967 33.7585 58.5433 33.7718 58.49C33.7851 58.4367 33.7918 58.36 33.7918 58.26V52.74C33.7918 52.5867 33.7585 52.4767 33.6918 52.41C33.6318 52.3367 33.5051 52.3 33.3118 52.3H32.9918V52H34.5318ZM50.0723 59H47.7923V58.7H47.9723C48.079 58.7 48.1323 58.6733 48.1323 58.62C48.1323 58.5933 48.079 58.5 47.9723 58.34L45.9323 55.18L45.2323 55.88V58.26C45.2323 58.36 45.239 58.4367 45.2523 58.49C45.2657 58.5433 45.309 58.5933 45.3823 58.64C45.4557 58.68 45.5657 58.7 45.7123 58.7H46.0923V59H43.5523V58.7H43.8723C44.019 58.7 44.129 58.68 44.2023 58.64C44.2757 58.5933 44.319 58.5433 44.3323 58.49C44.3457 58.4367 44.3523 58.36 44.3523 58.26V52.74C44.3523 52.64 44.3457 52.5633 44.3323 52.51C44.319 52.4567 44.2757 52.41 44.2023 52.37C44.129 52.3233 44.019 52.3 43.8723 52.3H43.5523V52H46.0923V52.3H45.7123C45.5657 52.3 45.4557 52.3233 45.3823 52.37C45.309 52.41 45.2657 52.4567 45.2523 52.51C45.239 52.5633 45.2323 52.64 45.2323 52.74V55.34L47.8123 52.82C47.9457 52.7 48.0123 52.5933 48.0123 52.5C48.0123 52.3667 47.9123 52.3 47.7123 52.3H47.5323V52H49.5123V52.3H49.3523C49.2323 52.3 49.059 52.3633 48.8323 52.49C48.6057 52.6167 48.4123 52.76 48.2523 52.92L46.5523 54.6L48.8123 58C48.8923 58.1067 48.9657 58.2133 49.0323 58.32C49.2323 58.5733 49.499 58.7 49.8323 58.7H50.0723V59ZM59.512 59H54.152V58.72H54.492C54.6853 58.72 54.812 58.6833 54.872 58.61C54.9386 58.5367 54.972 58.42 54.972 58.26V52.74C54.972 52.6067 54.9286 52.4967 54.842 52.41C54.762 52.3233 54.6453 52.28 54.492 52.28H54.152V52H59.432L59.512 53.38L59.232 53.44C59.232 53.2 59.1353 52.97 58.942 52.75C58.7486 52.53 58.4786 52.42 58.132 52.42H56.312C56.112 52.42 55.982 52.46 55.922 52.54C55.862 52.6133 55.832 52.72 55.832 52.86V55.14H57.832C57.932 55.14 58.0086 55.1367 58.062 55.13C58.1153 55.1167 58.162 55.08 58.202 55.02C58.2486 54.96 58.272 54.8733 58.272 54.76V54.3H58.572V56.38H58.272V55.96C58.272 55.7933 58.2353 55.6867 58.162 55.64C58.0886 55.5867 57.9786 55.56 57.832 55.56H55.832V58.14C55.832 58.28 55.862 58.39 55.922 58.47C55.982 58.5433 56.112 58.58 56.312 58.58H58.212C58.5653 58.58 58.8753 58.4667 59.142 58.24C59.4153 58.0133 59.5586 57.7933 59.572 57.58L59.852 57.62L59.512 59ZM67.9884 59H65.3884V58.72H65.7884C65.9884 58.72 66.1151 58.6833 66.1684 58.61C66.2218 58.53 66.2484 58.42 66.2484 58.28V52.88C66.2484 52.78 66.2418 52.7033 66.2284 52.65C66.2151 52.59 66.1718 52.5367 66.0984 52.49C66.0318 52.4433 65.9284 52.42 65.7884 52.42H65.1884C64.8351 52.42 64.5618 52.53 64.3684 52.75C64.1818 52.9633 64.0818 53.1933 64.0684 53.44L63.7884 53.38L63.8884 52H69.5084L69.6084 53.38L69.3284 53.44C69.3151 53.2 69.2118 52.97 69.0184 52.75C68.8251 52.53 68.5551 52.42 68.2084 52.42H67.6084C67.4618 52.42 67.3518 52.4467 67.2784 52.5C67.2051 52.5467 67.1618 52.5967 67.1484 52.65C67.1351 52.7033 67.1284 52.78 67.1284 52.88V58.28C67.1284 58.3733 67.1351 58.4467 67.1484 58.5C67.1618 58.5533 67.2051 58.6033 67.2784 58.65C67.3518 58.6967 67.4618 58.72 67.6084 58.72H67.9884V59ZM75.592 55.46L76.072 55.48C76.572 55.48 77.032 55.4 77.452 55.24C77.6986 55.1467 77.8953 55 78.042 54.8C78.1953 54.6 78.272 54.3533 78.272 54.06C78.272 53.0067 77.6386 52.48 76.372 52.48L75.332 52.52V58.28C75.332 58.3733 75.3386 58.4467 75.352 58.5C75.3653 58.5533 75.4086 58.6033 75.482 58.65C75.5553 58.6967 75.6653 58.72 75.812 58.72H76.192V59H73.652V58.72H73.972C74.1186 58.72 74.2286 58.6967 74.302 58.65C74.3753 58.6033 74.4186 58.5533 74.432 58.5C74.4453 58.4467 74.452 58.3733 74.452 58.28V52.74C74.452 52.5867 74.4186 52.4767 74.352 52.41C74.292 52.3367 74.1653 52.3 73.972 52.3H73.652V52H75.192L77.092 51.9C77.692 51.9 78.1753 52.03 78.542 52.29C78.9086 52.55 79.092 52.9167 79.092 53.39C79.092 53.8567 78.982 54.2667 78.762 54.62C78.5486 54.9667 78.282 55.2267 77.962 55.4C77.3553 55.72 76.812 55.88 76.332 55.88C76.052 55.88 75.832 55.8733 75.672 55.86L75.592 55.46ZM88.5471 59H83.1871V58.7H83.5271C83.7271 58.7 83.8571 58.6633 83.9171 58.59C83.9771 58.5167 84.0071 58.4067 84.0071 58.26V52.74C84.0071 52.5933 83.9771 52.4833 83.9171 52.41C83.8571 52.3367 83.7271 52.3 83.5271 52.3H83.1871V52H85.7271V52.3H85.3471C85.1471 52.3 85.0171 52.3367 84.9571 52.41C84.8971 52.4833 84.8671 52.5933 84.8671 52.74V58.12C84.8671 58.2667 84.8971 58.38 84.9571 58.46C85.0171 58.54 85.1471 58.58 85.3471 58.58H87.2471C87.6004 58.58 87.9104 58.4667 88.1771 58.24C88.4504 58.0067 88.5871 57.78 88.5871 57.56L88.8871 57.62L88.5471 59ZM99.7373 59H97.1773V58.72H97.4973C97.7907 58.72 97.9373 58.6267 97.9373 58.44C97.9373 58.4133 97.904 58.3 97.8373 58.1L97.1573 56.32H94.6373L93.9773 58.02C93.9773 58.0333 93.954 58.1167 93.9073 58.27C93.8607 58.4167 93.8373 58.52 93.8373 58.58C93.8373 58.6333 93.874 58.67 93.9473 58.69C94.0207 58.71 94.1773 58.72 94.4173 58.72H94.5773V59H92.6173V58.72H92.7573C92.9773 58.72 93.1373 58.6833 93.2373 58.61C93.3373 58.53 93.424 58.4 93.4973 58.22L95.6973 52.48C95.7307 52.4733 95.7907 52.4267 95.8773 52.34C95.964 52.2467 96.044 52.1533 96.1173 52.06C96.1907 51.96 96.2273 51.9033 96.2273 51.89C96.2273 51.8767 96.224 51.8667 96.2173 51.86L96.3573 51.82L98.8173 58.26C98.8907 58.4133 98.964 58.53 99.0373 58.61C99.1173 58.6833 99.2307 58.72 99.3773 58.72H99.7373V59ZM96.9773 55.9L95.8973 53.04L94.7973 55.9H96.9773ZM109.566 57.04L109.806 57.4C109.266 58.0133 108.726 58.4667 108.186 58.76C107.646 59.0533 107.066 59.2 106.446 59.2C105.68 59.2 104.996 58.8633 104.396 58.19C103.803 57.5167 103.506 56.7533 103.506 55.9C103.506 54.8267 103.91 53.88 104.716 53.06C105.53 52.2333 106.473 51.82 107.546 51.82C107.973 51.82 108.506 51.9267 109.146 52.14L109.026 53.54H108.686C108.686 53.2933 108.603 53.1 108.436 52.96C108.27 52.82 108.08 52.7333 107.866 52.7C107.66 52.66 107.4 52.64 107.086 52.64C106.313 52.64 105.64 52.8667 105.066 53.32C104.493 53.7733 104.206 54.3933 104.206 55.18C104.206 55.7533 104.313 56.2633 104.526 56.71C104.74 57.1567 105.006 57.5 105.326 57.74C105.96 58.2067 106.566 58.44 107.146 58.44C107.506 58.44 107.906 58.3233 108.346 58.09C108.786 57.8567 109.193 57.5067 109.566 57.04ZM119.369 59H114.009V58.72H114.349C114.543 58.72 114.669 58.6833 114.729 58.61C114.796 58.5367 114.829 58.42 114.829 58.26V52.74C114.829 52.6067 114.786 52.4967 114.699 52.41C114.619 52.3233 114.503 52.28 114.349 52.28H114.009V52H119.289L119.369 53.38L119.089 53.44C119.089 53.2 118.993 52.97 118.799 52.75C118.606 52.53 118.336 52.42 117.989 52.42H116.169C115.969 52.42 115.839 52.46 115.779 52.54C115.719 52.6133 115.689 52.72 115.689 52.86V55.14H117.689C117.789 55.14 117.866 55.1367 117.919 55.13C117.973 55.1167 118.019 55.08 118.059 55.02C118.106 54.96 118.129 54.8733 118.129 54.76V54.3H118.429V56.38H118.129V55.96C118.129 55.7933 118.093 55.6867 118.019 55.64C117.946 55.5867 117.836 55.56 117.689 55.56H115.689V58.14C115.689 58.28 115.719 58.39 115.779 58.47C115.839 58.5433 115.969 58.58 116.169 58.58H118.069C118.423 58.58 118.733 58.4667 118.999 58.24C119.273 58.0133 119.416 57.7933 119.429 57.58L119.709 57.62L119.369 59Z" fill="#9A9999"/>
<path d="M36.96 47H24.768V45.656H26.304C27.008 45.656 27.536 45.544 27.888 45.32C28.24 45.064 28.448 44.808 28.512 44.552C28.576 44.296 28.608 43.928 28.608 43.448V30.584H9.984V43.448C9.984 44.152 10.128 44.696 10.416 45.08C10.704 45.464 11.328 45.656 12.288 45.656H14.112V47H1.92V45.656H3.552C4.512 45.656 5.136 45.464 5.424 45.08C5.712 44.696 5.856 44.152 5.856 43.448V16.952C5.856 16.248 5.712 15.704 5.424 15.32C5.136 14.936 4.512 14.744 3.552 14.744H1.92V13.4H14.112V14.744H12.288C11.328 14.744 10.704 14.936 10.416 15.32C10.128 15.704 9.984 16.248 9.984 16.952V28.472H28.608V16.952C28.608 16.472 28.576 16.104 28.512 15.848C28.448 15.592 28.24 15.352 27.888 15.128C27.536 14.872 27.008 14.744 26.304 14.744H24.768V13.4H36.96V14.744H35.136C34.432 14.744 33.904 14.872 33.552 15.128C33.2 15.352 32.992 15.592 32.928 15.848C32.864 16.104 32.832 16.472 32.832 16.952V43.448C32.832 43.928 32.864 44.296 32.928 44.552C32.992 44.808 33.2 45.064 33.552 45.32C33.904 45.544 34.432 45.656 35.136 45.656H36.96V47ZM61.7074 47H54.7954V43.16C53.1954 44.888 51.8674 46.072 50.8114 46.712C49.7554 47.352 48.3154 47.672 46.4914 47.672C44.6994 47.672 43.2914 47.256 42.2674 46.424C41.2754 45.56 40.7794 44.36 40.7794 42.824C40.7794 41.288 41.4354 39.8 42.7474 38.36C44.0914 36.888 45.6434 35.784 47.4034 35.048C49.1954 34.28 50.7634 33.704 52.1074 33.32C53.4514 32.904 54.3474 32.696 54.7954 32.696V31.64C54.7954 28.632 53.5474 27.128 51.0514 27.128C49.3234 27.128 47.7074 27.496 46.2034 28.232C44.7314 28.968 43.6274 29.912 42.8914 31.064L41.9314 30.2C44.0754 26.04 47.7874 23.96 53.0674 23.96C54.4114 23.96 55.5154 24.328 56.3794 25.064C57.2754 25.768 57.8674 26.6 58.1554 27.56C58.4754 28.52 58.6354 29.592 58.6354 30.776V43.736C58.6354 44.152 58.6674 44.472 58.7314 44.696C58.7954 44.92 58.9874 45.144 59.3074 45.368C59.6594 45.56 60.1714 45.656 60.8434 45.656H61.7074V47ZM54.7954 40.472V34.616C52.2994 35.096 49.9794 36.056 47.8354 37.496C45.6914 38.936 44.6194 40.504 44.6194 42.2C44.6194 42.872 44.9394 43.464 45.5794 43.976C46.2514 44.456 47.0674 44.696 48.0274 44.696C49.0194 44.696 50.1874 44.264 51.5314 43.4C52.8754 42.504 53.9634 41.528 54.7954 40.472ZM103.456 47H95.1041V45.656H95.2961C95.6481 45.656 95.9361 45.48 96.1601 45.128C96.4161 44.776 96.5441 44.344 96.5441 43.832V31.64C96.5441 30.36 96.2241 29.304 95.5841 28.472C94.9761 27.64 94.1761 27.224 93.1841 27.224C92.2241 27.224 91.3281 27.448 90.4961 27.896C89.6961 28.344 89.0401 28.888 88.5281 29.528C88.0481 30.168 87.6161 30.84 87.2321 31.544C86.5921 32.792 86.2721 33.72 86.2721 34.328V43.736C86.2721 45.016 86.9761 45.656 88.3841 45.656H89.2481V47H80.8961V45.656H81.1841C81.4721 45.656 81.7281 45.48 81.9521 45.128C82.2081 44.776 82.3361 44.344 82.3361 43.832V31.64C82.3361 30.36 82.0321 29.304 81.4241 28.472C80.8161 27.64 79.9841 27.224 78.9281 27.224C77.9041 27.224 76.9281 27.56 76.0001 28.232C75.0721 28.904 74.3361 29.688 73.7921 30.584C72.7041 32.408 72.1601 33.688 72.1601 34.424V43.544C72.1601 44.056 72.1761 44.424 72.2081 44.648C72.2721 44.872 72.4641 45.096 72.7841 45.32C73.1041 45.544 73.6001 45.656 74.2721 45.656H75.1361V47H65.4401V45.656H66.2081C67.0721 45.656 67.6161 45.512 67.8401 45.224C68.0961 44.936 68.2241 44.472 68.2241 43.832V29.432C68.2241 28.824 68.0161 28.392 67.6001 28.136C67.2161 27.848 66.4961 27.704 65.4401 27.704V26.36C66.0801 26.36 67.0401 26.136 68.3201 25.688C69.6321 25.208 70.6241 24.76 71.2961 24.344L72.1601 24.152V30.296C73.0881 28.12 74.1921 26.52 75.4721 25.496C76.7841 24.472 78.5601 23.96 80.8001 23.96C81.8241 23.96 82.7201 24.184 83.4881 24.632C84.2561 25.048 84.8321 25.608 85.2161 26.312C85.8561 27.56 86.2081 28.888 86.2721 30.296C87.0081 28.152 88.0481 26.568 89.3921 25.544C90.7361 24.488 92.5441 23.96 94.8161 23.96C95.9681 23.96 96.9441 24.216 97.7441 24.728C98.5441 25.24 99.1201 25.896 99.4721 26.696C100.08 28.072 100.384 29.432 100.384 30.776V43.736C100.384 44.184 100.416 44.52 100.48 44.744C100.64 45.352 101.312 45.656 102.496 45.656H103.456V47ZM127.942 47H121.03V43.16C119.43 44.888 118.102 46.072 117.046 46.712C115.99 47.352 114.55 47.672 112.726 47.672C110.934 47.672 109.526 47.256 108.502 46.424C107.51 45.56 107.014 44.36 107.014 42.824C107.014 41.288 107.67 39.8 108.982 38.36C110.326 36.888 111.878 35.784 113.638 35.048C115.43 34.28 116.998 33.704 118.342 33.32C119.686 32.904 120.582 32.696 121.03 32.696V31.64C121.03 28.632 119.782 27.128 117.286 27.128C115.558 27.128 113.942 27.496 112.438 28.232C110.966 28.968 109.862 29.912 109.126 31.064L108.166 30.2C110.31 26.04 114.022 23.96 119.302 23.96C120.646 23.96 121.75 24.328 122.614 25.064C123.51 25.768 124.102 26.6 124.39 27.56C124.71 28.52 124.87 29.592 124.87 30.776V43.736C124.87 44.152 124.902 44.472 124.966 44.696C125.03 44.92 125.222 45.144 125.542 45.368C125.894 45.56 126.406 45.656 127.078 45.656H127.942V47ZM121.03 40.472V34.616C118.534 35.096 116.214 36.056 114.07 37.496C111.926 38.936 110.854 40.504 110.854 42.2C110.854 42.872 111.174 43.464 111.814 43.976C112.486 44.456 113.302 44.696 114.262 44.696C115.254 44.696 116.422 44.264 117.766 43.4C119.11 42.504 120.198 41.528 121.03 40.472Z" fill="#E49E15"/>
</svg>
